<svg width="632" height="1024" viewBox="0 0 632 1024" fill="none" xmlns="http://www.w3.org/2000/svg">
<g clip-path="url(#clip0_774_115080)">
<rect width="632" height="1024" fill="white"/>
<rect y="-15" width="70.2222" height="70.22" fill="#02437B"/>
<rect x="70.2227" y="-15" width="70.2222" height="70.22" fill="#055397"/>
<rect x="140.445" y="-15" width="70.2222" height="70.22" fill="#02437B"/>
<rect x="210.668" y="-15" width="70.2222" height="70.22" fill="#055397"/>
<rect x="280.889" y="-15" width="70.2222" height="70.22" fill="#02437B"/>
<rect x="351.111" y="-15" width="70.2222" height="70.22" fill="#055397"/>
<rect x="421.332" y="-15" width="70.2222" height="70.22" fill="#02437B"/>
<rect x="491.555" y="-15" width="70.2222" height="70.22" fill="#055397"/>
<rect x="561.777" y="-15" width="70.2222" height="70.22" fill="#02437B"/>
<rect y="55.22" width="70.2222" height="70.22" fill="#055397"/>
<rect x="70.2227" y="55.22" width="70.2222" height="70.22" fill="#02437B"/>
<rect x="140.445" y="55.22" width="70.2222" height="70.22" fill="#055397"/>
<rect x="210.668" y="55.22" width="70.2222" height="70.22" fill="#02437B"/>
<rect x="280.889" y="55.22" width="70.2222" height="70.22" fill="#055397"/>
<rect x="351.111" y="55.22" width="70.2222" height="70.22" fill="#02437B"/>
<rect x="421.332" y="55.22" width="70.2222" height="70.22" fill="#055397"/>
<rect x="491.555" y="55.22" width="70.2222" height="70.22" fill="#02437B"/>
<rect x="561.777" y="55.22" width="70.2222" height="70.22" fill="#055397"/>
<rect y="125.44" width="70.2222" height="70.22" fill="#02437B"/>
<rect x="70.2227" y="125.44" width="70.2222" height="70.22" fill="#055397"/>
<rect x="140.445" y="125.44" width="70.2222" height="70.22" fill="#02437B"/>
<rect x="210.668" y="125.44" width="70.2222" height="70.22" fill="#055397"/>
<rect x="280.889" y="125.44" width="70.2222" height="70.22" fill="#02437B"/>
<rect x="351.111" y="125.44" width="70.2222" height="70.22" fill="#055397"/>
<rect x="421.332" y="125.44" width="70.2222" height="70.22" fill="#02437B"/>
<rect x="491.555" y="125.44" width="70.2222" height="70.22" fill="#055397"/>
<rect x="561.777" y="125.44" width="70.2222" height="70.22" fill="#02437B"/>
<rect y="195.66" width="70.2222" height="70.22" fill="#055397"/>
<rect x="70.2227" y="195.66" width="70.2222" height="70.22" fill="#02437B"/>
<rect x="140.445" y="195.66" width="70.2222" height="70.22" fill="#055397"/>
<rect x="210.668" y="195.66" width="70.2222" height="70.22" fill="#02437B"/>
<rect x="280.889" y="195.66" width="70.2222" height="70.22" fill="#055397"/>
<rect x="351.111" y="195.66" width="70.2222" height="70.22" fill="#02437B"/>
<rect x="421.332" y="195.66" width="70.2222" height="70.22" fill="#055397"/>
<rect x="491.555" y="195.66" width="70.2222" height="70.22" fill="#02437B"/>
<rect x="561.777" y="195.66" width="70.2222" height="70.22" fill="#055397"/>
<rect y="265.88" width="70.2222" height="70.22" fill="#02437B"/>
<rect x="70.2227" y="265.88" width="70.2222" height="70.22" fill="#055397"/>
<rect x="140.445" y="265.88" width="70.2222" height="70.22" fill="#02437B"/>
<rect x="210.668" y="265.88" width="70.2222" height="70.22" fill="#055397"/>
<rect x="280.889" y="265.88" width="70.2222" height="70.22" fill="#02437B"/>
<rect x="351.111" y="265.88" width="70.2222" height="70.22" fill="#055397"/>
<rect x="421.332" y="265.88" width="70.2222" height="70.22" fill="#02437B"/>
<rect x="491.555" y="265.88" width="70.2222" height="70.22" fill="#055397"/>
<rect x="561.777" y="265.88" width="70.2222" height="70.22" fill="#02437B"/>
<rect y="336.1" width="70.2222" height="70.22" fill="#055397"/>
<rect x="70.2227" y="336.1" width="70.2222" height="70.22" fill="#02437B"/>
<rect x="140.445" y="336.1" width="70.2222" height="70.22" fill="#055397"/>
<rect x="210.668" y="336.1" width="70.2222" height="70.22" fill="#02437B"/>
<rect x="280.889" y="336.1" width="70.2222" height="70.22" fill="#055397"/>
<rect x="351.111" y="336.1" width="70.2222" height="70.22" fill="#02437B"/>
<rect x="421.332" y="336.1" width="70.2222" height="70.22" fill="#055397"/>
<rect x="491.555" y="336.1" width="70.2222" height="70.22" fill="#02437B"/>
<rect x="561.777" y="336.1" width="70.2222" height="70.22" fill="#055397"/>
<rect y="406.32" width="70.2222" height="70.22" fill="#02437B"/>
<rect x="70.2227" y="406.32" width="70.2222" height="70.22" fill="#055397"/>
<rect x="140.445" y="406.32" width="70.2222" height="70.22" fill="#02437B"/>
<rect x="210.668" y="406.32" width="70.2222" height="70.22" fill="#055397"/>
<rect x="280.889" y="406.32" width="70.2222" height="70.22" fill="#02437B"/>
<rect x="351.111" y="406.32" width="70.2222" height="70.22" fill="#055397"/>
<rect x="421.332" y="406.32" width="70.2222" height="70.22" fill="#02437B"/>
<rect x="491.555" y="406.32" width="70.2222" height="70.22" fill="#055397"/>
<rect x="561.777" y="406.32" width="70.2222" height="70.22" fill="#02437B"/>
<rect y="476.54" width="70.2222" height="70.22" fill="#055397"/>
<rect x="70.2227" y="476.54" width="70.2222" height="70.22" fill="#02437B"/>
<rect x="140.445" y="476.54" width="70.2222" height="70.22" fill="#055397"/>
<rect x="210.668" y="476.54" width="70.2222" height="70.22" fill="#02437B"/>
<rect x="280.889" y="476.54" width="70.2222" height="70.22" fill="#055397"/>
<rect x="351.111" y="476.54" width="70.2222" height="70.22" fill="#02437B"/>
<rect x="421.332" y="476.54" width="70.2222" height="70.22" fill="#055397"/>
<rect x="491.555" y="476.54" width="70.2222" height="70.22" fill="#02437B"/>
<rect x="561.777" y="476.54" width="70.2222" height="70.22" fill="#055397"/>
<rect y="546.76" width="70.2222" height="70.22" fill="#02437B"/>
<rect x="70.2227" y="546.76" width="70.2222" height="70.22" fill="#055397"/>
<rect x="140.445" y="546.76" width="70.2222" height="70.22" fill="#02437B"/>
<rect x="210.668" y="546.76" width="70.2222" height="70.22" fill="#055397"/>
<rect x="280.889" y="546.76" width="70.2222" height="70.22" fill="#02437B"/>
<rect x="351.111" y="546.76" width="70.2222" height="70.22" fill="#055397"/>
<rect x="421.332" y="546.76" width="70.2222" height="70.22" fill="#02437B"/>
<rect x="491.555" y="546.76" width="70.2222" height="70.22" fill="#055397"/>
<rect x="561.777" y="546.76" width="70.2222" height="70.22" fill="#02437B"/>
<rect y="616.98" width="70.2222" height="70.22" fill="#055397"/>
<rect x="70.2227" y="616.98" width="70.2222" height="70.22" fill="#02437B"/>
<rect x="140.445" y="616.98" width="70.2222" height="70.22" fill="#055397"/>
<rect x="210.668" y="616.98" width="70.2222" height="70.22" fill="#02437B"/>
<rect x="280.889" y="616.98" width="70.2222" height="70.22" fill="#055397"/>
<rect x="351.111" y="616.98" width="70.2222" height="70.22" fill="#02437B"/>
<rect x="421.332" y="616.98" width="70.2222" height="70.22" fill="#055397"/>
<rect x="491.555" y="616.98" width="70.2222" height="70.22" fill="#02437B"/>
<rect x="561.777" y="616.98" width="70.2222" height="70.22" fill="#055397"/>
<rect y="687.2" width="70.2222" height="70.22" fill="#02437B"/>
<rect x="70.2227" y="687.2" width="70.2222" height="70.22" fill="#055397"/>
<rect x="140.445" y="687.2" width="70.2222" height="70.22" fill="#02437B"/>
<rect x="210.668" y="687.2" width="70.2222" height="70.22" fill="#055397"/>
<rect x="280.889" y="687.2" width="70.2222" height="70.22" fill="#02437B"/>
<rect x="351.111" y="687.2" width="70.2222" height="70.22" fill="#055397"/>
<rect x="421.332" y="687.2" width="70.2222" height="70.22" fill="#02437B"/>
<rect x="491.555" y="687.2" width="70.2222" height="70.22" fill="#055397"/>
<rect x="561.777" y="687.2" width="70.2222" height="70.22" fill="#02437B"/>
<rect y="757.42" width="70.2222" height="70.22" fill="#055397"/>
<rect x="70.2227" y="757.42" width="70.2222" height="70.22" fill="#02437B"/>
<rect x="140.445" y="757.42" width="70.2222" height="70.22" fill="#055397"/>
<rect x="210.668" y="757.42" width="70.2222" height="70.22" fill="#02437B"/>
<rect x="280.889" y="757.42" width="70.2222" height="70.22" fill="#055397"/>
<rect x="351.111" y="757.42" width="70.2222" height="70.22" fill="#02437B"/>
<rect x="421.332" y="757.42" width="70.2222" height="70.22" fill="#055397"/>
<rect x="491.555" y="757.42" width="70.2222" height="70.22" fill="#02437B"/>
<rect x="561.777" y="757.42" width="70.2222" height="70.22" fill="#055397"/>
<rect y="827.64" width="70.2222" height="70.22" fill="#02437B"/>
<rect x="70.2227" y="827.64" width="70.2222" height="70.22" fill="#055397"/>
<rect x="140.445" y="827.64" width="70.2222" height="70.22" fill="#02437B"/>
<rect x="210.668" y="827.64" width="70.2222" height="70.22" fill="#055397"/>
<rect x="280.889" y="827.64" width="70.2222" height="70.22" fill="#02437B"/>
<rect x="351.111" y="827.64" width="70.2222" height="70.22" fill="#055397"/>
<rect x="421.332" y="827.64" width="70.2222" height="70.22" fill="#02437B"/>
<rect x="491.555" y="827.64" width="70.2222" height="70.22" fill="#055397"/>
<rect x="561.777" y="827.64" width="70.2222" height="70.22" fill="#02437B"/>
<rect y="897.86" width="70.2222" height="70.22" fill="#055397"/>
<rect x="70.2227" y="897.86" width="70.2222" height="70.22" fill="#02437B"/>
<rect x="140.445" y="897.86" width="70.2222" height="70.22" fill="#055397"/>
<rect x="210.668" y="897.86" width="70.2222" height="70.22" fill="#02437B"/>
<rect x="280.889" y="897.86" width="70.2222" height="70.22" fill="#055397"/>
<rect x="351.111" y="897.86" width="70.2222" height="70.22" fill="#02437B"/>
<rect x="421.332" y="897.86" width="70.2222" height="70.22" fill="#055397"/>
<rect x="491.555" y="897.86" width="70.2222" height="70.22" fill="#02437B"/>
<rect x="561.777" y="897.86" width="70.2222" height="70.22" fill="#055397"/>
<rect y="968.08" width="70.2222" height="70.22" fill="#02437B"/>
<rect x="70.2227" y="968.08" width="70.2222" height="70.22" fill="#055397"/>
<rect x="140.445" y="968.08" width="70.2222" height="70.22" fill="#02437B"/>
<rect x="210.668" y="968.08" width="70.2222" height="70.22" fill="#055397"/>
<rect x="280.889" y="968.08" width="70.2222" height="70.22" fill="#02437B"/>
<rect x="351.111" y="968.08" width="70.2222" height="70.22" fill="#055397"/>
<rect x="421.332" y="968.08" width="70.2222" height="70.22" fill="#02437B"/>
<rect x="491.555" y="968.08" width="70.2222" height="70.22" fill="#055397"/>
<rect x="561.777" y="968.08" width="70.2222" height="70.22" fill="#02437B"/>
<rect width="632" height="1024" fill="url(#paint0_radial_774_115080)"/>
</g>
<defs>
<radialGradient id="paint0_radial_774_115080" cx="0" cy="0" r="1" gradientUnits="userSpaceOnUse" gradientTransform="translate(296 8.10318e-06) rotate(89.5643) scale(789.023 1155.09)">
<stop stop-color="#02437B" stop-opacity="0"/>
<stop offset="1" stop-color="#02437B"/>
</radialGradient>
<clipPath id="clip0_774_115080">
<rect width="632" height="1024" fill="white"/>
</clipPath>
</defs>
</svg>
